REM DIRINDEX 1\6,1\2\7,1\2\8,1\2\9,1\3\10,1\3\11,1\4\12,1\4\13,1\4\14,1\5\15,1\5\16,1\5\17
REM DIRNAME cjc040,folder01,folder02,folder03,folder04,folder05,folder06,folder07,folder08,folder09,folder10,folder11,folder12,folder13,folder14,folder15,folder16
TITLE ""
FILE "P2Q_t2_0161-0178.mp3" MP3
  TRACK 01 AUDIO
    TITLE "7:cjc040_4310"
    INDEX 01 00:00:00
  TRACK 02 AUDIO
    TITLE "0:"
    INDEX 01 00:00:66
  TRACK 03 AUDIO
    TITLE "8:cjc040_4311"
    INDEX 01 00:01:50
  TRACK 04 AUDIO
    TITLE "0:"
    INDEX 01 00:04:13
  TRACK 05 AUDIO
    TITLE "9:cjc040_4312"
    INDEX 01 00:04:68
  TRACK 06 AUDIO
    TITLE "0:"
    INDEX 01 00:06:00
  TRACK 07 AUDIO
    TITLE "7:cjc040_4313"
    INDEX 01 00:07:56
  TRACK 08 AUDIO
    TITLE "0:"
    INDEX 01 00:08:70
  TRACK 09 AUDIO
    TITLE "8:cjc040_4314"
    INDEX 01 00:09:55
  TRACK 10 AUDIO
    TITLE "0:"
    INDEX 01 00:12:07
  TRACK 11 AUDIO
    TITLE "9:cjc040_4315"
    INDEX 01 00:12:63
  TRACK 12 AUDIO
    TITLE "0:"
    INDEX 01 00:14:00
  TRACK 13 AUDIO
    TITLE "7:cjc040_4316"
    INDEX 01 00:15:58
  TRACK 14 AUDIO
    TITLE "0:"
    INDEX 01 00:17:12
  TRACK 15 AUDIO
    TITLE "8:cjc040_4317"
    INDEX 01 00:17:65
  TRACK 16 AUDIO
    TITLE "0:"
    INDEX 01 00:19:07
  TRACK 17 AUDIO
    TITLE "9:cjc040_4318"
    INDEX 01 00:19:62
  TRACK 18 AUDIO
    TITLE "0:"
    INDEX 01 00:21:15
  TRACK 19 AUDIO
    TITLE "7:cjc040_4319"
    INDEX 01 00:23:03
  TRACK 20 AUDIO
    TITLE "0:"
    INDEX 01 00:24:18
  TRACK 21 AUDIO
    TITLE "8:cjc040_4320"
    INDEX 01 00:24:74
  TRACK 22 AUDIO
    TITLE "0:"
    INDEX 01 00:27:18
  TRACK 23 AUDIO
    TITLE "9:cjc040_4321"
    INDEX 01 00:27:73
  TRACK 24 AUDIO
    TITLE "0:"
    INDEX 01 00:29:13
  TRACK 25 AUDIO
    TITLE "7:cjc040_4322"
    INDEX 01 00:30:73
  TRACK 26 AUDIO
    TITLE "0:"
    INDEX 01 00:32:25
  TRACK 27 AUDIO
    TITLE "8:cjc040_4323"
    INDEX 01 00:33:03
  TRACK 28 AUDIO
    TITLE "0:"
    INDEX 01 00:34:18
  TRACK 29 AUDIO
    TITLE "9:cjc040_4324"
    INDEX 01 00:35:04
  TRACK 30 AUDIO
    TITLE "0:"
    INDEX 01 00:36:31
  TRACK 31 AUDIO
    TITLE "7:cjc040_4325"
    INDEX 01 00:38:16
  TRACK 32 AUDIO
    TITLE "0:"
    INDEX 01 00:39:25
  TRACK 33 AUDIO
    TITLE "8:cjc040_4326"
    INDEX 01 00:40:01
  TRACK 34 AUDIO
    TITLE "0:"
    INDEX 01 00:43:60
  TRACK 35 AUDIO
    TITLE "9:cjc040_4327"
    INDEX 01 00:44:40
  TRACK 36 AUDIO
    TITLE "0:"
    INDEX 01 00:45:51
  TRACK 37 AUDIO
    TITLE "7:cjc040_4328"
    INDEX 01 00:47:27
  TRACK 38 AUDIO
    TITLE "0:"
    INDEX 01 00:48:42
  TRACK 39 AUDIO
    TITLE "8:cjc040_4329"
    INDEX 01 00:49:21
  TRACK 40 AUDIO
    TITLE "0:"
    INDEX 01 00:51:54
  TRACK 41 AUDIO
    TITLE "9:cjc040_4330"
    INDEX 01 00:52:36
  TRACK 42 AUDIO
    TITLE "0:"
    INDEX 01 00:53:49
  TRACK 43 AUDIO
    TITLE "7:cjc040_4331"
    INDEX 01 00:55:30
  TRACK 44 AUDIO
    TITLE "0:"
    INDEX 01 00:56:57
  TRACK 45 AUDIO
    TITLE "8:cjc040_4332"
    INDEX 01 00:57:39
  TRACK 46 AUDIO
    TITLE "0:"
    INDEX 01 01:00:00
  TRACK 47 AUDIO
    TITLE "9:cjc040_4333"
    INDEX 01 01:00:53
  TRACK 48 AUDIO
    TITLE "0:"
    INDEX 01 01:02:08
  TRACK 49 AUDIO
    TITLE "7:cjc040_4334"
    INDEX 01 01:03:61
  TRACK 50 AUDIO
    TITLE "0:"
    INDEX 01 01:05:22
  TRACK 51 AUDIO
    TITLE "8:cjc040_4335"
    INDEX 01 01:06:02
  TRACK 52 AUDIO
    TITLE "0:"
    INDEX 01 01:08:31
  TRACK 53 AUDIO
    TITLE "9:cjc040_4336"
    INDEX 01 01:09:10
  TRACK 54 AUDIO
    TITLE "0:"
    INDEX 01 01:10:49
  TRACK 55 AUDIO
    TITLE "7:cjc040_4337"
    INDEX 01 01:12:30
  TRACK 56 AUDIO
    TITLE "0:"
    INDEX 01 01:13:69
  TRACK 57 AUDIO
    TITLE "8:cjc040_4338"
    INDEX 01 01:14:51
  TRACK 58 AUDIO
    TITLE "0:"
    INDEX 01 01:15:66
  TRACK 59 AUDIO
    TITLE "9:cjc040_4339"
    INDEX 01 01:16:34
  TRACK 60 AUDIO
    TITLE "0:"
    INDEX 01 01:18:04
  TRACK 61 AUDIO
    TITLE "7:cjc040_4340"
    INDEX 01 01:19:62
  TRACK 62 AUDIO
    TITLE "0:"
    INDEX 01 01:21:10
  TRACK 63 AUDIO
    TITLE "8:cjc040_4341"
    INDEX 01 01:21:67
  TRACK 64 AUDIO
    TITLE "0:"
    INDEX 01 01:23:20
  TRACK 65 AUDIO
    TITLE "9:cjc040_4342"
    INDEX 01 01:23:71
  TRACK 66 AUDIO
    TITLE "0:"
    INDEX 01 01:25:19
  TRACK 67 AUDIO
    TITLE "7:cjc040_4343"
    INDEX 01 01:27:01
  TRACK 68 AUDIO
    TITLE "0:"
    INDEX 01 01:28:00
  TRACK 69 AUDIO
    TITLE "8:cjc040_4344"
    INDEX 01 01:28:57
  TRACK 70 AUDIO
    TITLE "0:"
    INDEX 01 01:32:17
  TRACK 71 AUDIO
    TITLE "9:cjc040_4345"
    INDEX 01 01:32:70
  TRACK 72 AUDIO
    TITLE "0:"
    INDEX 01 01:33:72
  TRACK 73 AUDIO
    TITLE "7:cjc040_4346"
    INDEX 01 01:35:59
  TRACK 74 AUDIO
    TITLE "0:"
    INDEX 01 01:36:72
  TRACK 75 AUDIO
    TITLE "8:cjc040_4347"
    INDEX 01 01:37:54
  TRACK 76 AUDIO
    TITLE "0:"
    INDEX 01 01:39:00
  TRACK 77 AUDIO
    TITLE "9:cjc040_4348"
    INDEX 01 01:39:53
  TRACK 78 AUDIO
    TITLE "0:"
    INDEX 01 01:40:72
  TRACK 79 AUDIO
    TITLE "7:cjc040_4349"
    INDEX 01 01:42:55
  TRACK 80 AUDIO
    TITLE "0:"
    INDEX 01 01:43:72
  TRACK 81 AUDIO
    TITLE "8:cjc040_4350"
    INDEX 01 01:44:52
  TRACK 82 AUDIO
    TITLE "0:"
    INDEX 01 01:47:70
  TRACK 83 AUDIO
    TITLE "9:cjc040_4351"
    INDEX 01 01:48:46
  TRACK 84 AUDIO
    TITLE "0:"
    INDEX 01 01:49:61
  TRACK 85 AUDIO
    TITLE "7:cjc040_4352"
    INDEX 01 01:51:44
  TRACK 86 AUDIO
    TITLE "0:"
    INDEX 01 01:52:55
  TRACK 87 AUDIO
    TITLE "8:cjc040_4353"
    INDEX 01 01:53:37
  TRACK 88 AUDIO
    TITLE "0:"
    INDEX 01 01:54:31
  TRACK 89 AUDIO
    TITLE "9:cjc040_4354"
    INDEX 01 01:55:05
  TRACK 90 AUDIO
    TITLE "0:"
    INDEX 01 01:56:12
  TRACK 91 AUDIO
    TITLE "7:cjc040_4355"
    INDEX 01 01:58:05
  TRACK 92 AUDIO
    TITLE "0:"
    INDEX 01 01:59:03
  TRACK 93 AUDIO
    TITLE "8:cjc040_4356"
    INDEX 01 01:59:59
  TRACK 94 AUDIO
    TITLE "0:"
    INDEX 01 02:00:49
  TRACK 95 AUDIO
    TITLE "9:cjc040_4357"
    INDEX 01 02:01:25
  TRACK 96 AUDIO
    TITLE "0:"
    INDEX 01 02:02:30
  TRACK 97 AUDIO
    TITLE "7:cjc040_4358"
    INDEX 01 02:04:15
  TRACK 98 AUDIO
    TITLE "0:"
    INDEX 01 02:05:46
  TRACK 99 AUDIO
    TITLE "8:cjc040_4359"
    INDEX 01 02:06:20
  TRACK 100 AUDIO
    TITLE "0:"
    INDEX 01 02:08:47
  TRACK 101 AUDIO
    TITLE "9:cjc040_4360"
    INDEX 01 02:09:22
  TRACK 102 AUDIO
    TITLE "0:"
    INDEX 01 02:10:57
  TRACK 103 AUDIO
    TITLE "7:cjc040_4361"
    INDEX 01 02:12:38
  TRACK 104 AUDIO
    TITLE "0:"
    INDEX 01 02:14:06
  TRACK 105 AUDIO
    TITLE "8:cjc040_4362"
    INDEX 01 02:14:59
  TRACK 106 AUDIO
    TITLE "0:"
    INDEX 01 02:17:18
  TRACK 107 AUDIO
    TITLE "9:cjc040_4363"
    INDEX 01 02:17:73
  TRACK 108 AUDIO
    TITLE "0:"
    INDEX 01 02:19:40
